<svg width="26" height="24" viewBox="0 0 26 24" fill="none" xmlns="http://www.w3.org/2000/svg">
<path d="M13.0583 12.78C12.9856 12.77 12.8923 12.77 12.8093 12.78C10.9835 12.72 9.53125 11.28 9.53125 9.50998C9.53125 7.69998 11.0458 6.22998 12.9338 6.22998C14.8114 6.22998 16.3363 7.69998 16.3363 9.50998C16.3259 11.28 14.884 12.72 13.0583 12.78Z" stroke="#ABABAB" stroke-width="1.5" stroke-linecap="round" stroke-linejoin="round"/>
<path d="M19.9255 19.3801C18.079 21.0101 15.6308 22.0001 12.9337 22.0001C10.2365 22.0001 7.78839 21.0101 5.94189 19.3801C6.04563 18.4401 6.66804 17.5201 7.77802 16.8001C10.6204 14.9801 15.2677 14.9801 18.0893 16.8001C19.1993 17.5201 19.8217 18.4401 19.9255 19.3801Z" stroke="#ABABAB" stroke-width="1.5" stroke-linecap="round" stroke-linejoin="round"/>
<path d="M12.9336 22C18.6628 22 23.3072 17.5228 23.3072 12C23.3072 6.47715 18.6628 2 12.9336 2C7.20446 2 2.56006 6.47715 2.56006 12C2.56006 17.5228 7.20446 22 12.9336 22Z" stroke="#ABABAB" stroke-width="1.5" stroke-linecap="round" stroke-linejoin="round"/>
</svg>
